<?xml version="1.0" encoding="UTF-8"?>
<svg id="Character" xmlns="http://www.w3.org/2000/svg" viewBox="0 0 387.78 281.26">
  <defs>
    <style>
      .cls-1, .cls-2, .cls-3, .cls-4, .cls-5, .cls-6, .cls-7 {
        fill: #fff;
      }

      .cls-2, .cls-8 {
        opacity: .4;
      }

      .cls-9, .cls-10, .cls-7 {
        opacity: .6;
      }

      .cls-11 {
        fill: #f5f5f5;
      }

      .cls-3 {
        opacity: .3;
      }

      .cls-12, .cls-6 {
        opacity: .2;
      }

      .cls-4 {
        opacity: .5;
      }

      .cls-13 {
        opacity: .8;
      }

      .cls-5 {
        opacity: .7;
      }

      .cls-10 {
        fill: #fafafa;
      }

      .cls-14 {
        fill: #b55b52;
      }

      .cls-15 {
        opacity: .1;
      }

      .cls-16 {
        fill: #ebebeb;
      }

      .cls-17 {
        fill: #407bff;
      }

      .cls-18 {
        fill: #a02724;
      }

      .cls-19 {
        fill: #263238;
      }
    </style>
  </defs>
  <path class="cls-15" d="M242.82,38.32c-.22,2.54-2.46,4.59-4.99,4.59s-4.41-2.06-4.19-4.59c.22-2.54,2.46-4.59,4.99-4.59s4.41,2.06,4.19,4.59Z"/>
  <path class="cls-15" d="M240.73,38.32c-.12,1.39-1.34,2.51-2.73,2.51s-2.41-1.12-2.29-2.51c.12-1.39,1.34-2.51,2.73-2.51s2.41,1.12,2.29,2.51Z"/>
  <g class="cls-13">
    <path class="cls-1" d="M188,45.98h-6.76c-.42,0-.73-.34-.69-.76l.32-3.63c.04-.42,.41-.76,.83-.76h6.76c.42,0,.73,.34,.69,.76l-.32,3.63c-.04,.42-.41,.76-.83,.76Z"/>
    <path class="cls-1" d="M191.13,44.99h0c-.42,0-.73-.34-.69-.76l.15-1.66c.04-.42,.41-.76,.83-.76h0c.42,0,.73,.34,.69,.76l-.15,1.66c-.04,.42-.41,.76-.83,.76Z"/>
  </g>
  <g>
    <ellipse id="_Path_" data-name="&amp;lt;Path&amp;gt;" class="cls-11" cx="193.89" cy="269.93" rx="193.89" ry="11.32"/>
    <rect class="cls-16" x="266.42" y="255.45" width="8.69" height=".25"/>
    <rect class="cls-16" x="48.44" y="245.13" width="6.33" height=".25"/>
    <path class="cls-17" d="M307.34,.07h-32.56l-23.03,263.25h32.56c9.26,0,17.45-7.53,18.26-16.79l20.09-229.66c.81-9.26-6.06-16.79-15.32-16.79Z"/>
    <path class="cls-17" d="M300.7,.07h-110.2c-9.26,0-17.45,7.53-18.26,16.79l-20.09,229.66c-.81,9.26,6.06,16.79,15.32,16.79h110.2c9.26,0,17.45-7.53,18.26-16.79l20.09-229.66c.81-9.26-6.06-16.79-15.32-16.79Z"/>
    <path class="cls-3" d="M300.7,.07h-110.2c-9.26,0-17.45,7.53-18.26,16.79l-20.09,229.66c-.81,9.26,6.06,16.79,15.32,16.79h110.2c9.26,0,17.45-7.53,18.26-16.79l20.09-229.66c.81-9.26-6.06-16.79-15.32-16.79Z"/>
    <path class="cls-2" d="M300.22,5.45h-29.05c-1.71,0-3.32,1.12-3.96,2.77h0c-2.35,6.07-8.3,10.23-14.63,10.23h-17.18c-6.34,0-11.56-4.16-12.84-10.23h0c-.35-1.64-1.76-2.77-3.47-2.77h-29.05c-6.3,0-11.86,5.11-12.41,11.41l-20.09,229.66c-.55,6.3,4.11,11.41,10.41,11.41h110.2c6.3,0,11.86-5.11,12.41-11.41l20.09-229.66c.55-6.3-4.11-11.41-10.41-11.41Z"/>
    <path class="cls-1" d="M272.77,130.2h-77.12c-2.29,0-3.98-1.85-3.78-4.14l.39-4.41c.2-2.29,2.22-4.14,4.5-4.14h77.12c2.29,0,3.98,1.85,3.78,4.14l-.39,4.41c-.2,2.29-2.22,4.14-4.5,4.14Z"/>
    <path class="cls-1" d="M271.11,149.24h-77.12c-2.29,0-3.98-1.85-3.78-4.14l.39-4.41c.2-2.29,2.22-4.14,4.5-4.14h77.12c2.29,0,3.98,1.85,3.78,4.14l-.39,4.41c-.2,2.29-2.22,4.14-4.5,4.14Z"/>
    <ellipse class="cls-1" cx="238.7" cy="78.87" rx="33.73" ry="30.9" transform="translate(11.72 186.95) rotate(-43.75)"/>
    <g>
      <path class="cls-17" d="M238.81,77.62c-8.49,0-15.65,3.23-16.26,10.24l-.68,7.78h30.73l.68-7.78c.61-7.01-5.98-10.24-14.47-10.24Z"/>
      <path class="cls-17" d="M239.09,74.41c3.94,0,5.75-3.19,6.1-7.13,.34-3.94-.91-7.13-4.85-7.13s-5.75,3.19-6.1,7.13c-.34,3.94,.91,7.13,4.85,7.13Z"/>
    </g>
    <g>
      <path class="cls-17" d="M269.25,123.63c-2.1,0-3.86,.8-4.02,2.53l-.17,1.92h7.59l.17-1.92c.15-1.73-1.48-2.53-3.57-2.53Z"/>
      <path class="cls-17" d="M269.32,122.83c.97,0,1.42-.79,1.51-1.76,.09-.97-.23-1.76-1.2-1.76s-1.42,.79-1.51,1.76c-.09,.97,.23,1.76,1.2,1.76Z"/>
    </g>
    <path class="cls-17" d="M245.88,168.28h-30.01c-3.51,0-6.1-2.84-5.79-6.35h0c.31-3.51,3.4-6.35,6.9-6.35h30.01c3.51,0,6.1,2.84,5.79,6.35h0c-.31,3.51-3.4,6.35-6.9,6.35Z"/>
    <path class="cls-17" d="M242.26,239.06h-32.12c-3.7,0-6.44-3-6.12-6.71l2.05-23.43c.32-3.7,3.59-6.71,7.29-6.71h32.12c3.7,0,6.44,3,6.12,6.71l-2.05,23.43c-.32,3.7-3.59,6.71-7.29,6.71Z"/>
    <g class="cls-9">
      <path class="cls-1" d="M232.36,214.84c.19-2.23-1.45-4.04-3.68-4.04s-4.19,1.81-4.39,4.04c-.12,1.33,.43,2.49,1.36,3.23l-.71,8.07c-.12,1.32,.86,2.4,2.19,2.4s2.49-1.07,2.61-2.4l.71-8.07c1.05-.74,1.8-1.9,1.92-3.23Z"/>
    </g>
    <path class="cls-17" d="M245.77,207.1h-4.14l1.01-11.59c.61-6.96-4.56-12.63-11.53-12.63s-13.13,5.67-13.74,12.63l-1.01,11.59h-4.14l1.01-11.59c.81-9.25,8.99-16.77,18.24-16.77s16.11,7.52,15.3,16.77l-1.01,11.59Z"/>
    <path class="cls-17" d="M269.76,141.38l.1-1.11c.1-1.14-.74-2.06-1.88-2.06s-2.14,.92-2.24,2.06l-.1,1.11c-.45,0-.85,.37-.89,.82l-.26,2.96c-.04,.45,.3,.82,.75,.82h4.12c.45,0,.85-.37,.89-.82l.26-2.96c.04-.45-.3-.82-.75-.82Zm-1.83-2.66c.86,0,1.49,.7,1.42,1.55l-.1,1.11h-3.1l.1-1.11c.07-.86,.83-1.55,1.69-1.55Z"/>
    <g>
      <path class="cls-19" d="M207.74,142.56l-1.44-.3c-.17-.04-.26-.21-.19-.38l.6-1.42c.13-.3-.24-.53-.47-.29l-1.09,1.12c-.13,.13-.34,.13-.44,0l-.89-1.12c-.19-.24-.6-.02-.52,.29l.35,1.42c.04,.17-.08,.35-.25,.38l-1.49,.3c-.32,.06-.36,.51-.05,.58l1.44,.3c.17,.04,.26,.21,.19,.38l-.6,1.42c-.13,.3,.24,.53,.47,.29l1.09-1.12c.13-.13,.34-.13,.44,0l.89,1.12c.19,.24,.6,.02,.52-.29l-.35-1.42c-.04-.17,.08-.35,.25-.38l1.49-.3c.32-.06,.36-.51,.05-.58Z"/>
      <path class="cls-19" d="M217.2,142.56l-1.44-.3c-.17-.04-.26-.21-.19-.38l.6-1.42c.13-.3-.24-.53-.47-.29l-1.09,1.12c-.13,.13-.34,.13-.44,0l-.89-1.12c-.19-.24-.6-.02-.52,.29l.35,1.42c.04,.17-.08,.35-.25,.38l-1.49,.3c-.32,.06-.36,.51-.05,.58l1.44,.3c.17,.04,.26,.21,.19,.38l-.6,1.42c-.13,.3,.24,.53,.47,.29l1.09-1.12c.13-.13,.34-.13,.44,0l.89,1.12c.19,.24,.6,.02,.52-.29l-.35-1.42c-.04-.17,.08-.35,.25-.38l1.49-.3c.32-.06,.36-.51,.05-.58Z"/>
      <path class="cls-19" d="M226.66,142.56l-1.44-.3c-.17-.04-.26-.21-.19-.38l.6-1.42c.13-.3-.24-.53-.47-.29l-1.09,1.12c-.13,.13-.34,.13-.44,0l-.89-1.12c-.19-.24-.6-.02-.52,.29l.35,1.42c.04,.17-.08,.35-.25,.38l-1.49,.3c-.32,.06-.36,.51-.05,.58l1.44,.3c.17,.04,.26,.21,.19,.38l-.6,1.42c-.13,.3,.24,.53,.47,.29l1.09-1.12c.13-.13,.34-.13,.44,0l.89,1.12c.19,.24,.6,.02,.52-.29l-.35-1.42c-.04-.17,.08-.35,.25-.38l1.49-.3c.32-.06,.36-.51,.05-.58Z"/>
      <path class="cls-19" d="M236.13,142.56l-1.44-.3c-.17-.04-.26-.21-.19-.38l.6-1.42c.13-.3-.24-.53-.47-.29l-1.09,1.12c-.13,.13-.34,.13-.44,0l-.89-1.12c-.19-.24-.6-.02-.52,.29l.35,1.42c.04,.17-.08,.35-.25,.38l-1.49,.3c-.32,.06-.36,.51-.05,.58l1.44,.3c.17,.04,.26,.21,.19,.38l-.6,1.42c-.13,.3,.24,.53,.47,.29l1.09-1.12c.13-.13,.34-.13,.44,0l.89,1.12c.19,.24,.6,.02,.52-.29l-.35-1.42c-.04-.17,.08-.35,.25-.38l1.49-.3c.32-.06,.36-.51,.05-.58Z"/>
      <path class="cls-19" d="M245.59,142.56l-1.44-.3c-.17-.04-.26-.21-.19-.38l.6-1.42c.13-.3-.24-.53-.47-.29l-1.09,1.12c-.13,.13-.34,.13-.44,0l-.89-1.12c-.19-.24-.6-.02-.52,.29l.35,1.42c.04,.17-.08,.35-.25,.38l-1.49,.3c-.32,.06-.36,.51-.05,.58l1.44,.3c.17,.04,.26,.21,.19,.38l-.6,1.42c-.13,.3,.24,.53,.47,.29l1.09-1.12c.13-.13,.34-.13,.44,0l.89,1.12c.19,.24,.6,.02,.52-.29l-.35-1.42c-.04-.17,.08-.35,.25-.38l1.49-.3c.32-.06,.36-.51,.05-.58Z"/>
      <path class="cls-19" d="M255.05,142.56l-1.44-.3c-.17-.04-.26-.21-.19-.38l.6-1.42c.13-.3-.24-.53-.47-.29l-1.09,1.12c-.13,.13-.34,.13-.44,0l-.89-1.12c-.19-.24-.6-.02-.52,.29l.35,1.42c.04,.17-.08,.35-.25,.38l-1.49,.3c-.32,.06-.36,.51-.05,.58l1.44,.3c.17,.04,.26,.21,.19,.38l-.6,1.42c-.13,.3,.24,.53,.47,.29l1.09-1.12c.13-.13,.34-.13,.44,0l.89,1.12c.19,.24,.6,.02,.52-.29l-.35-1.42c-.04-.17,.08-.35,.25-.38l1.49-.3c.32-.06,.36-.51,.05-.58Z"/>
    </g>
    <g>
      <path class="cls-19" d="M232.24,121.85h-17.77c-1.1,0-2.08,.9-2.17,2-.1,1.1,.72,2,1.82,2h17.77c1.1,0,2.08-.9,2.17-2,.1-1.1-.72-2-1.82-2Z"/>
      <path class="cls-19" d="M250.28,121.85h-10.31c-1.1,0-2.08,.9-2.17,2-.1,1.1,.72,2,1.82,2h10.31c1.1,0,2.08-.9,2.17-2,.1-1.1-.72-2-1.82-2Z"/>
    </g>
    <path class="cls-19" d="M263.89,212.51c-6.7,2.68-12.57,6.58-16.59,11.01-2.36-2.01-5.71-3.4-9.72-4.04l-.47-.07-.21,2.36,.26,.1c3.96,1.5,7.19,4.16,9.33,7.69l.34,.55,.37-.59c4.12-6.6,10.13-12.12,16.92-15.56l.23-.12,.14-1.57-.59,.24Z"/>
    <path class="cls-12" d="M174.53,15.62c-1.25,2.2-2.07,4.65-2.3,7.25l-14.89,170.22h46.08l9.26-35.49-3.05-35.49,9.26-35.49-3.05-35.49,9.26-35.49h-50.56Z"/>
    <g>
      <g>
        <polygon class="cls-17" points="211.84 41.11 221.1 5.62 104.57 5.62 95.32 41.11 98.36 76.6 89.11 112.1 92.15 147.59 82.89 183.08 199.42 183.08 208.68 147.59 205.63 112.1 214.89 76.6 211.84 41.11"/>
        <polygon class="cls-5" points="211.84 41.11 221.1 5.62 104.57 5.62 95.32 41.11 98.36 76.6 89.11 112.1 92.15 147.59 82.89 183.08 199.42 183.08 208.68 147.59 205.63 112.1 214.89 76.6 211.84 41.11"/>
        <polygon class="cls-4" points="211.84 41.11 95.32 41.11 104.57 5.62 221.1 5.62 211.84 41.11"/>
        <polygon class="cls-4" points="205.63 112.1 89.11 112.1 98.36 76.6 214.89 76.6 205.63 112.1"/>
        <polygon class="cls-4" points="199.42 183.08 82.89 183.08 92.15 147.59 208.68 147.59 199.42 183.08"/>
      </g>
      <path class="cls-12" d="M196.25,55.94c-1,.31-2.28,.5-3.68,.5-2.06,0-3.86-.41-4.89-1.02-.28-.17-.59-.25-.9-.25h0c-.29,0-.57,.08-.84,.23-.02,.01-.04,.01-.06,.03h0s-.02,.01-.04,.02c-.38,.22-.86,.42-1.42,.57-.96,.27-2.15,.43-3.43,.43-.35,0-.69-.01-1.02-.03-1-.07-1.91-.23-2.66-.47-.13-.04-.26-.07-.39-.07-.91-.06-1.72,.64-1.72,1.6h0v1.08h-45.29c-3.51,0-6.35,2.84-6.35,6.35v6.4c0,3.51,2.84,6.35,6.35,6.35h51.53c.11,0,.22-.01,.34-.02,.56,.46,1.13,.92,1.75,1.38,.73,.56,1.51,1.12,2.32,1.71,.56,.41,1.34,.41,1.9,0,6.48-4.7,10.64-7.94,10.64-16.85v-6.4c0-1.1-1.07-1.85-2.11-1.52Z"/>
      <g>
        <rect class="cls-17" x="122.56" y="55.03" width="64.22" height="19.09" rx="6.35" ry="6.35"/>
        <g>
          <g>
            <path class="cls-17" d="M191.58,52.92c-2.06,0-3.86-.41-4.89-1.02-.56-.34-1.24-.34-1.8,0-1.03,.61-2.84,1.02-4.89,1.02-1.4,0-2.68-.19-3.68-.5-1.05-.33-2.11,.43-2.11,1.52v6.4c0,8.91,4.16,12.15,10.64,16.85,.56,.41,1.34,.41,1.9,0,6.48-4.7,10.64-7.94,10.64-16.85v-6.4c0-1.1-1.07-1.85-2.11-1.52-1,.31-2.28,.5-3.68,.5Z"/>
            <path class="cls-3" d="M191.58,52.92c-2.06,0-3.86-.41-4.89-1.02-.56-.34-1.24-.34-1.8,0-1.03,.61-2.84,1.02-4.89,1.02-1.4,0-2.68-.19-3.68-.5-1.05-.33-2.11,.43-2.11,1.52v6.4c0,8.91,4.16,12.15,10.64,16.85,.56,.41,1.34,.41,1.9,0,6.48-4.7,10.64-7.94,10.64-16.85v-6.4c0-1.1-1.07-1.85-2.11-1.52-1,.31-2.28,.5-3.68,.5Z"/>
            <path class="cls-6" d="M184.89,51.9c-1.03,.61-2.84,1.02-4.89,1.02-1.4,0-2.68-.19-3.68-.5-1.05-.33-2.11,.43-2.11,1.52v6.4c0,8.91,4.16,12.15,10.64,16.85,.28,.2,.62,.31,.95,.31v-25.85c-.31,0-.62,.08-.9,.25Z"/>
          </g>
          <path class="cls-19" d="M195.08,58.6c-4.19,1.73-7.77,4.26-10.12,7.13-1.64-1.3-3.89-2.2-6.53-2.61l-.31-.05v1.53l.18,.06c2.65,.97,4.89,2.69,6.48,4.98l.25,.36,.21-.39c2.29-4.27,5.87-7.85,10.07-10.08l.14-.08v-1.02l-.37,.15Z"/>
        </g>
      </g>
      <g>
        <path class="cls-17" d="M219.04,15.6h-4.42c-2.45,0-4.27-1.99-4.05-4.44l.39-4.42c.21-2.45,2.38-4.44,4.83-4.44h4.42c2.45,0,4.27,1.99,4.05,4.44l-.39,4.42c-.21,2.45-2.38,4.44-4.83,4.44Z"/>
        <polygon class="cls-1" points="220.88 6.73 219.92 5.68 217.5 7.9 215.48 5.68 214.33 6.73 216.36 8.95 213.95 11.17 214.9 12.22 217.32 10 219.35 12.22 220.49 11.17 218.46 8.95 220.88 6.73"/>
      </g>
    </g>
    <g>
      <g>
        <path class="cls-14" d="M120.26,53.73c2.56,2.79,5.01,5.67,7.43,8.59,2.42,2.91,4.78,5.87,7.11,8.86,.1,.13,.06,.08,.09,.12,.01,.02,.01,.05,.03,.06,.03,.03,.04,.08,.07,.1,.05,.07,.11,.13,.18,.2,.14,.13,.34,.22,.55,.26,.11,.02,.22,.03,.34,.02,.06,0,.12-.01,.18-.01,.03,0,.06-.02,.09-.02,.05-.02,.02,.02,.16-.06l2.5-1.36c3.36-1.78,6.75-3.52,10.25-5.08l2.93,3.63c-2.82,2.6-5.76,5.84-8.73,8.22l-2.24,1.76c-.06,.05-.3,.21-.45,.31-.17,.11-.34,.23-.52,.33-.36,.2-.73,.4-1.12,.55-.77,.33-1.59,.54-2.42,.67-1.67,.25-3.4,.08-5.02-.5-.81-.29-1.59-.68-2.3-1.17-.36-.24-.7-.51-1.03-.79-.17-.14-.32-.29-.47-.44l-.4-.4c-2.65-2.71-5.26-5.45-7.82-8.25-2.56-2.79-5.09-5.61-7.51-8.52l8.11-7.08Z"/>
        <path class="cls-14" d="M147.88,67.62l2.33-7.49,6.14,3.06s-.89,5.46-5.36,6.41l-3.11-1.98Z"/>
        <polygon class="cls-14" points="152.67 58.06 158.21 59.58 156.35 63.19 150.21 60.14 152.67 58.06"/>
      </g>
      <g>
        <path class="cls-14" d="M87.98,55.78c-.67,3.18-1.48,6.33-2.34,9.46-.85,3.14-1.78,6.26-2.75,9.36l-.36,1.17-.18,.58c-.04,.13-.06,.16-.1,.24-.11,.29-.18,.61-.19,.95-.02,.67,.14,1.41,.58,2.05,.04,.1,.38,.47,.65,.76l.83,.9,1.64,1.83c1.08,1.24,2.15,2.48,3.17,3.78l-3.48,4.03c-1.44-.82-2.82-1.7-4.2-2.59l-2.05-1.35-1.01-.69c-.34-.24-.62-.4-1.17-.86-1.9-1.61-3.32-3.9-3.84-6.45-.27-1.27-.33-2.59-.18-3.9,.04-.31,.1-.68,.15-.95l.11-.6,.21-1.2c.56-3.21,1.16-6.41,1.83-9.58,.67-3.18,1.38-6.35,2.24-9.49l10.46,2.53Z"/>
        <path class="cls-14" d="M85.51,86.59l4.13-2.11,1.82,7.01s-3.31,1.27-5.87-.36l-.07-4.54Z"/>
        <polygon class="cls-14" points="95.34 82.23 95.53 88.67 90.92 91.68 89.32 84.61 95.34 82.23"/>
      </g>
      <path class="cls-19" d="M108.83,22.71c.1,.5,.44,.84,.77,.78,.32-.07,.51-.52,.4-1.02s-.45-.84-.77-.78c-.32,.07-.5,.52-.4,1.02Z"/>
      <path class="cls-18" d="M109.23,23.56s1.71,2.63,3.23,3.76c-.71,1-2.28,.93-2.28,.93l-.95-4.68Z"/>
      <path class="cls-19" d="M106.46,20.33c-.07,0-.14-.03-.2-.08-.12-.11-.13-.3-.02-.42,1.12-1.21,2.47-.99,2.53-.98,.16,.03,.27,.18,.24,.34-.03,.16-.18,.27-.34,.24h0s-1.1-.16-1.99,.8c-.06,.06-.14,.1-.22,.1Z"/>
      <path class="cls-14" d="M94.41,29.68c1.1,4.59,2.2,12.99-1.73,16.05,0,0,1.54,4.65,12,4.65,11.5,0,5.5-3,5.5-3-6.28-1.22-6.11-6.67-5.02-10.24l-10.74-7.47Z"/>
      <path class="cls-19" d="M91.45,46.58c-.69-1.27-1.44-2.73,.12-3.19,1.72-.5,12.75-1.43,15.99-.49-1,1.77,.69,3.95,.69,3.95l-16.8-.27Z"/>
      <polygon class="cls-14" points="100.59 261.16 107.8 261.16 108.52 246.64 101.3 246.64 100.59 261.16"/>
      <polygon class="cls-14" points="54.8 259.16 62.11 259.55 66.55 245.24 59.24 244.85 54.8 259.16"/>
      <path class="cls-19" d="M61.89,258.97l-6.88-1.49c-.25-.05-.51,.07-.61,.31l-2.39,5.18c-.25,.54,.08,1.17,.66,1.28,2.41,.48,3.61,.59,6.64,1.25,1.86,.4,6.07,1.43,8.64,1.98,2.52,.54,3.46-1.91,2.46-2.37-4.5-2.06-6.38-3.86-7.59-5.55-.22-.3-.55-.51-.91-.59Z"/>
      <path class="cls-19" d="M107.42,260.43h-6.85c-.26,0-.48,.18-.53,.43l-1.24,5.57c-.13,.58,.31,1.13,.9,1.12,2.47-.04,6.04-.19,9.14-.19,3.63,0,6.77,.2,11.02,.2,2.57,0,3.29-2.6,2.21-2.84-4.91-1.07-8.91-1.19-13.15-3.8-.46-.28-.97-.49-1.51-.49Z"/>
      <path class="cls-19" d="M79.61,47.85c-5.45,2.59-6.92,18.28-6.92,18.28l13.47,6.22s3.34-4.93,3.6-12.67c.27-8.11-4.58-14.49-10.14-11.84Z"/>
      <path class="cls-8" d="M86.92,57.53c-2.43,3.77-2.2,9.62-1.36,14.55l.6,.28s3.35-4.93,3.6-12.67c.01-.48,.01-.96,0-1.43l-2.84-.73Z"/>
      <g>
        <path class="cls-17" d="M117.2,47.47s6.67,7.54,.37,54.19h-33.54c-.23-5.15,3-30.26-1.96-54.52,0,0,5.75-1.15,11.23-1.42,4.29-.21,10.49-.34,14.26,0,4.97,.45,9.64,1.74,9.64,1.74Z"/>
        <path class="cls-10" d="M117.2,47.47s6.67,7.54,.37,54.19h-33.54c-.23-5.15,3-30.26-1.96-54.52,0,0,5.75-1.15,11.23-1.42,4.29-.21,10.49-.34,14.26,0,4.97,.45,9.64,1.74,9.64,1.74Z"/>
      </g>
      <path class="cls-12" d="M120.13,61.73l-.13-.11-6.67-3.56c-.68,10.27,3.91,16.71,6.64,19.52,.38-6.58,.37-11.77,.15-15.85Z"/>
      <polygon class="cls-12" points="108.52 246.64 108.15 254.13 100.93 254.13 101.3 246.64 108.52 246.64"/>
      <polygon class="cls-12" points="59.24 244.86 66.55 245.25 64.26 252.62 56.95 252.23 59.24 244.86"/>
      <path class="cls-14" d="M92.09,25.02c1.61,6.01,2.25,9.61,5.96,12.11,5.58,3.76,12.53-.56,12.74-6.93,.2-5.73-2.47-14.6-8.92-15.81-6.35-1.19-11.39,4.62-9.78,10.63Z"/>
      <path class="cls-19" d="M105.68,101.67s-7.12,47.92-11.02,65.87c-4.28,19.66-27.22,84.7-27.22,84.7l-11.22-2.43s14.38-53,17.97-80.49c1.4-10.72,3.09-28.01,5.23-42.43,2.07-13.96,4.62-25.22,4.62-25.22h21.64Z"/>
      <path class="cls-17" d="M70.13,248.49s-2.09,4.06-2.09,4.06l-12.63-2.73,1.06-3.8,13.66,2.47Z"/>
      <path class="cls-7" d="M70.13,248.49s-2.09,4.06-2.09,4.06l-12.63-2.73,1.06-3.8,13.66,2.47Z"/>
      <path class="cls-9" d="M101.18,118.74c-8.23,1.61-7.36,32.3-6.37,48.08,2.37-11.16,5.85-32.62,8.22-47.86-.55-.27-1.16-.36-1.85-.22Z"/>
      <path class="cls-19" d="M117.57,101.67s3.35,46.88,2.66,66c-.71,19.89-10.14,85.01-10.14,85.01h-10.62s-.39-63.96-.86-83.49c-.52-21.29-3.09-67.52-3.09-67.52h22.04Z"/>
      <path class="cls-17" d="M112.14,248.45s-.6,4.41-.6,4.41h-12.92l-.35-3.94,13.87-.47Z"/>
      <path class="cls-7" d="M112.14,248.45s-.6,4.41-.6,4.41h-12.92l-.35-3.94,13.87-.47Z"/>
      <path class="cls-19" d="M113.29,56.26c0,12.58,6.7,17.76,6.7,17.76l10.88-10.64s-3.7-6.37-8.79-12.23c-6.29-7.23-8.79-2.99-8.79,5.11Z"/>
      <path class="cls-12" d="M110.41,32.48c-.28,.77-1,2.08-2.82,2.6-2.66,.76-2.69,3.01-2.69,3.01l.03,.04c2.53-.84,4.64-2.93,5.48-5.65Z"/>
      <path class="cls-19" d="M107.59,13.07c2.24-2.83-1.21-2.96-1.21-2.96,.9-3.37-3.14-1.56-3.14-1.56-2.42-3.34-3.79,.72-3.79,.72-2.51-2.83-2.97,1.79-2.97,1.79-2.52-3.59-3.8,1.59-3.8,1.59-2.32-3.73-3.74,1.13-3.74,1.13-4.79-1.71-2.51,3.26-2.51,3.26-4.09,.11-.81,3.28-.81,3.28-4.9,.01-.58,2.82-.58,2.82-3.89,2.55,.99,3.24,.99,3.24-3.17,4.96,2.28,3.12,2.28,3.12-2.21,4.91,2.69,2.75,2.69,2.75-.32,4.74,2.42,3.45,3.74,2.57,.25,.95,.73,1.97,1.61,2.08,1.71,.22,2.04-3,2.04-3,0,0,1.59,1.23,2.91,.56,1.33-.67,.83-2.36,.83-2.36,0,0,1.02,.76,1.95,.03,.57-.44,.57-3.63-.15-4.75l2.6-1.02s1.93-.27,1.07-2.82c-.86-2.55-.13-4.56-.13-4.56,2.94-1.38,.53-3.03,.53-3.03,3.4-2.2-.4-2.9-.4-2.9Z"/>
      <path class="cls-14" d="M102.31,25.27c.41,1.58,1.45,2.93,2.53,3.74,1.63,1.21,2.85,.02,2.73-1.83-.1-1.66-1.08-4.3-2.88-4.79-1.77-.49-2.85,1.07-2.39,2.88Z"/>
    </g>
  </g>
</svg>